<?xml version="1.0" encoding="iso-8859-1"?>
<!-- Generator: Adobe Illustrator 18.1.1, SVG Export Plug-In . SVG Version: 6.00 Build 0)  -->
<svg version="1.1" id="Capa_1" xmlns="http://www.w3.org/2000/svg" xmlns:xlink="http://www.w3.org/1999/xlink" x="0px" y="0px"
	 viewBox="0 0 30 30" style="enable-background:new 0 0 30 30;" xml:space="preserve">
<g>
	<g>
		<path style="fill:#010002;" d="M28,15.35V10h-2V8h2V0H0v8h2v2H0v8h2v2H0v8h15.35c1.545,1.248,3.51,1.999,5.65,2
			c4.971-0.002,8.998-4.029,9-9C29.999,18.857,29.248,16.895,28,15.35z M2,4h4v2H2V4z M24,8v2H4V8H24z M2,14h4v2H2V14z M6,26H2v-2h4
			V26z M12.059,20H4v-2h8.522C12.297,18.639,12.135,19.307,12.059,20z M21,27.883c-3.801-0.009-6.876-3.084-6.885-6.883
			c0.009-3.801,3.084-6.876,6.885-6.884c3.799,0.008,6.874,3.083,6.883,6.884C27.874,24.799,24.799,27.874,21,27.883z"/>
		<path style="fill:#010002;" d="M24.158,19.591c-0.006-0.678-0.088-1.491-0.557-2.259c-0.457-0.779-1.438-1.359-2.602-1.333
			c-1.165-0.026-2.148,0.554-2.605,1.333c-0.47,0.768-0.552,1.581-0.556,2.259c0,0.144,0.007,0.278,0.015,0.409H17v5h8v-5h-0.855
			C24.152,19.869,24.158,19.732,24.158,19.591z M22.139,20h-2.283c-0.01-0.131-0.019-0.268-0.019-0.409
			c-0.004-0.478,0.093-0.958,0.254-1.198c0.173-0.227,0.271-0.365,0.909-0.394c0.637,0.026,0.73,0.165,0.904,0.394
			c0.162,0.24,0.259,0.724,0.253,1.198C22.157,19.736,22.148,19.871,22.139,20z"/>
	</g>
</g>
<g>
</g>
<g>
</g>
<g>
</g>
<g>
</g>
<g>
</g>
<g>
</g>
<g>
</g>
<g>
</g>
<g>
</g>
<g>
</g>
<g>
</g>
<g>
</g>
<g>
</g>
<g>
</g>
<g>
</g>
</svg>
