<?xml version="1.0"?>
<svg width="30" height="30" xmlns="http://www.w3.org/2000/svg" xmlns:svg="http://www.w3.org/2000/svg">
 <g>
  <title>Layer 1</title>
  <g id="svg_1">
   <g id="svg_2">
    <path id="svg_3" fill="#777" d="m28,15.35l0,-5.35l-2,0l0,-2l2,0l0,-8l-28,0l0,8l2,0l0,2l-2,0l0,8l2,0l0,2l-2,0l0,8l15.35,0c1.545,1.247999 3.51,1.999001 5.65,2c4.971001,-0.002001 8.997999,-4.028999 9,-9c-0.000999,-2.143 -0.752001,-4.105 -2,-5.65zm-26,-11.35l4,0l0,2l-4,0l0,-2zm22,4l0,2l-20,0l0,-2l20,0zm-22,6l4,0l0,2l-4,0l0,-2zm4,12l-4,0l0,-2l4,0l0,2zm6.059,-6l-8.059,0l0,-2l8.522,0c-0.225,0.639 -0.387,1.306999 -0.463,2zm8.941,7.882999c-3.801001,-0.008999 -6.876,-3.084 -6.885,-6.882999c0.009,-3.801001 3.084,-6.876 6.885,-6.885c3.799,0.009 6.874001,3.084 6.882999,6.885c-0.008999,3.799 -3.084,6.874001 -6.882999,6.882999z"/>
    <path id="svg_4" fill="#777" d="m17.533693,17.693319c0.177837,-0.456442 0.425724,-0.850855 0.74415,-1.18504c0.319517,-0.335766 0.704823,-0.596035 1.155912,-0.782495c0.450493,-0.188637 0.954391,-0.281867 1.512083,-0.281867c0.719383,0 1.319681,0.09858 1.801481,0.296927c0.481207,0.197752 0.868692,0.444056 1.162945,0.737221c0.293659,0.294252 0.504393,0.611095 0.631008,0.949535c0.126123,0.340027 0.18973,0.657463 0.18973,0.950621c0,0.485569 -0.063606,0.886425 -0.18973,1.200594c-0.126616,0.314169 -0.283947,0.582561 -0.471495,0.80558c-0.188046,0.22312 -0.395014,0.413342 -0.623482,0.570175c-0.227377,0.157335 -0.442966,0.314169 -0.645575,0.471504c-0.20261,0.156834 -0.382627,0.336258 -0.539465,0.538866c-0.157331,0.202116 -0.256504,0.455843 -0.296333,0.759312l0,0.577707l-2.052042,0l0,-0.68441c0.030218,-0.43544 0.114235,-0.799738 0.250563,-1.093397c0.136921,-0.293657 0.296333,-0.544809 0.478531,-0.752768c0.182693,-0.206972 0.375097,-0.387484 0.578203,-0.539469c0.202112,-0.152472 0.389067,-0.304457 0.562052,-0.454855c0.171402,-0.153065 0.311495,-0.31951 0.418198,-0.502209c0.106108,-0.181606 0.15416,-0.411161 0.143854,-0.68441c0,-0.466146 -0.113735,-0.810436 -0.342203,-1.033054c-0.227379,-0.223612 -0.544218,-0.334679 -0.950033,-0.334679c-0.273249,0 -0.50865,0.052813 -0.706503,0.159016s-0.359446,0.248978 -0.486555,0.426222c-0.126621,0.177843 -0.220446,0.385801 -0.280781,0.622986c-0.060932,0.239267 -0.091049,0.493593 -0.091049,0.768423l-2.234144,0c0.009607,-0.548479 0.102839,-1.049101 0.28068,-1.506037zm4.552498,6.520924l0,2.339758l-2.386717,0l0,-2.339758l2.386717,0z"/>
   </g>
  </g>
  <g id="svg_5"/>
  <g id="svg_6"/>
  <g id="svg_7"/>
  <g id="svg_8"/>
  <g id="svg_9"/>
  <g id="svg_10"/>
  <g id="svg_11"/>
  <g id="svg_12"/>
  <g id="svg_13"/>
  <g id="svg_14"/>
  <g id="svg_15"/>
  <g id="svg_16"/>
  <g id="svg_17"/>
  <g id="svg_18"/>
  <g id="svg_19"/>
 </g>
</svg>